<?xml version="1.0" encoding="UTF-8" standalone="no"?>
<!-- Created with Inkscape (http://www.inkscape.org/) -->

<svg
   xmlns:dc="http://purl.org/dc/elements/1.1/"
   xmlns:cc="http://creativecommons.org/ns#"
   xmlns:rdf="http://www.w3.org/1999/02/22-rdf-syntax-ns#"
   xmlns:svg="http://www.w3.org/2000/svg"
   xmlns="http://www.w3.org/2000/svg"
   xmlns:sodipodi="http://sodipodi.sourceforge.net/DTD/sodipodi-0.dtd"
   xmlns:inkscape="http://www.inkscape.org/namespaces/inkscape"
   id="svg3336"
   version="1.1"
   inkscape:version="0.91 r13725"
   width="600"
   height="600"
   viewBox="0 0 600 600"
   sodipodi:docname="LogoOnly.svg">
  <metadata
     id="metadata3342">
    <rdf:RDF>
      <cc:Work
         rdf:about="">
        <dc:format>image/svg+xml</dc:format>
        <dc:type
           rdf:resource="http://purl.org/dc/dcmitype/StillImage" />
        <dc:title></dc:title>
      </cc:Work>
    </rdf:RDF>
  </metadata>
  <defs
     id="defs3340" />
  <sodipodi:namedview
     pagecolor="#ffffff"
     bordercolor="#666666"
     borderopacity="1"
     objecttolerance="10"
     gridtolerance="10"
     guidetolerance="10"
     inkscape:pageopacity="0"
     inkscape:pageshadow="2"
     inkscape:window-width="1536"
     inkscape:window-height="811"
     id="namedview3338"
     showgrid="false"
     inkscape:zoom="0.64"
     inkscape:cx="618.97338"
     inkscape:cy="415.40545"
     inkscape:window-x="-8"
     inkscape:window-y="-8"
     inkscape:window-maximized="1"
     inkscape:current-layer="g3346" />
  <g
     id="g3346">
    <path
       style="fill:#bc1d2c"
       d="m 291.78227,566.10896 c -8.70777,-0.24677 -14.54329,-0.77413 -23.23669,-2.09982 -2.61413,-0.39865 -6.73336,-1.02833 -9.15385,-1.39927 -8.12486,-1.24517 -20.15642,-4.18099 -32.91865,-8.03247 -19.63547,-5.92578 -37.51023,-13.94328 -56.50741,-25.34574 -9.17005,-5.504 -22.56602,-15.01984 -30.80622,-21.88319 -19.34225,-16.11035 -34.31153,-32.42279 -48.639333,-53.00356 -2.991724,-4.29738 -8.675537,-13.20774 -11.453694,-17.95563 -2.394389,-4.09201 -8.814511,-16.40802 -9.957592,-19.10207 -0.636216,-1.49951 -1.906993,-4.38987 -2.823938,-6.42308 -4.968557,-11.01722 -11.443168,-30.25396 -13.864278,-41.19232 -4.874941,-22.02445 -6.240343,-30.75925 -7.264588,-46.47338 -0.866013,-13.28631 -0.499061,-30.75827 0.887301,-42.24853 0.727332,-6.02816 2.475987,-17.1093 3.370506,-21.35868 0.482372,-2.29157 1.27533,-6.06766 1.762104,-8.39133 6.011485,-28.69655 17.993543,-57.49124 34.648196,-83.26481 8.79267,-13.60693 16.864006,-23.96834 29.071146,-37.31954 20.7692,-22.71567 51.14962,-44.680963 80.30397,-58.060404 9.50107,-4.360213 14.44795,-6.320157 25.46466,-10.089055 17.79872,-6.089069 43.94785,-11.653436 60.20416,-12.811069 3.0014,-0.21373 6.48691,-0.55308 7.74556,-0.754113 3.5504,-0.567069 28.04587,-0.237072 36.08729,0.486152 11.92652,1.072643 22.79226,2.827096 34.47562,5.566643 16.40475,3.846646 22.42165,5.546457 31.71374,8.959352 3.48551,1.28019 7.36709,2.696043 8.62574,3.146331 8.79063,3.144922 29.90516,13.753586 39.15101,19.670798 1.1041,0.706619 2.28084,1.284766 2.61483,1.284766 0.33412,0 1.05176,-0.514904 1.59477,-1.144231 1.32214,-1.532448 11.39713,-14.58282 13.05081,-16.904998 2.82795,-3.971491 4.54007,-4.760729 22.98061,-10.594171 2.71095,-0.857575 5.72116,-1.885388 6.68935,-2.284026 2.33623,-0.961906 7.26018,-2.461529 8.9912,-2.738327 2.07956,-0.332555 5.96537,0.795387 7.98978,2.319221 2.40077,1.807146 3.73806,3.972817 4.30337,6.969353 0.51402,2.724103 0.40852,6.413832 -0.55628,19.448184 -0.29374,3.969601 -0.61507,8.564129 -0.71388,10.210062 -0.37601,6.264192 -2.17873,11.072352 -5.37906,14.347332 -0.52013,0.53226 -1.20138,1.37912 -1.51391,1.8819 -0.3124,0.50278 -1.68454,2.2104 -3.04917,3.79471 -1.36462,1.5843 -3.23248,3.94549 -4.15091,5.2471 -0.91832,1.30159 -2.28389,3.10636 -3.0345,4.01059 -0.75074,0.90423 -1.31112,1.88075 -1.24551,2.17006 0.0657,0.28931 2.33728,2.88411 5.04823,5.76621 12.99294,13.81329 22.17249,25.97457 34.4985,45.70432 1.36651,2.18713 6.286,11.32805 8.8046,16.35947 6.41426,12.81414 11.28012,25.14795 15.83533,40.13846 1.64476,5.41294 4.263,15.54285 4.77726,18.48373 0.16934,0.9682 0.70836,3.61216 1.19786,5.87548 1.97289,9.1218 3.36791,18.48362 4.44959,29.85974 0.94531,9.9421 1.03638,30.05652 0.17956,39.60799 -1.02242,11.39558 -2.65039,22.48539 -4.8066,32.74262 -0.56976,2.71094 -1.21382,5.80037 -1.43105,6.86538 -1.69405,8.30566 -7.71282,27.73011 -11.50908,37.1435 -10.04506,24.90808 -23.65672,47.81295 -41.1124,69.18197 -7.60227,9.30654 -22.36367,24.33987 -30.59956,31.16319 -1.16183,0.96256 -3.14223,2.63556 -4.40088,3.71776 -8.78829,7.55629 -25.41825,18.95847 -38.72196,26.54929 -11.65895,6.65239 -32.3247,15.76328 -43.13457,19.01677 -1.74275,0.52452 -5.42706,1.64942 -8.18753,2.49978 -8.04424,2.47815 -24.73757,6.48701 -29.83615,7.1651 -1.54911,0.206 -4.24246,0.62215 -5.98521,0.92475 -13.2117,2.29406 -30.26051,3.16998 -50.5222,2.59575 z m 36.26332,-10.84481 c 22.01172,-2.47812 37.84788,-5.9826 57.54203,-12.73385 17.63782,-6.0464 40.82394,-17.73773 57.05711,-28.77051 21.33786,-14.50216 39.80809,-31.6432 55.87497,-51.85401 24.50392,-30.824 41.10959,-66.44342 48.99011,-105.08456 5.20349,-25.51499 6.31827,-52.95812 3.19622,-78.68789 -1.68278,-13.86796 -4.17298,-25.96233 -8.30031,-40.31214 -9.07851,-31.56435 -25.76316,-62.83852 -47.42679,-88.89795 -6.27309,-7.54596 -13.43363,-15.13906 -14.27684,-15.13906 -0.54043,0 -1.23401,0.6192 -2.26781,2.02441 -2.39748,3.25914 -2.48268,2.97459 2.47788,8.27279 5.90611,6.30817 12.79943,14.65835 17.22156,20.86109 0.69017,0.9682 2.27837,3.18625 3.52916,4.929 6.9155,9.63563 14.87547,23.48458 20.72419,36.05698 10.31968,22.18262 17.36568,46.65392 20.39595,70.83582 2.4476,19.53371 2.39972,43.51061 -0.1244,62.18127 -2.25619,16.68869 -6.63208,34.71236 -11.97499,49.32203 -3.54782,9.70139 -5.38868,14.14685 -5.85835,14.14685 -0.14282,0 -1.09693,-1.06941 -2.12017,-2.37648 -4.05422,-5.17857 -12.46942,-13.15679 -20.38433,-19.32578 -9.64569,-7.51795 -21.84507,-15.0139 -36.32892,-22.3224 -13.25231,-6.68713 -20.07193,-9.65812 -39.5424,-17.22668 -5.58326,-2.17032 -25.65025,-8.85536 -33.27072,-11.0837 -19.54675,-5.71574 -31.68804,-8.77884 -57.3755,-14.47525 -6.79802,-1.50754 -7.48538,-1.52256 -8.4382,-0.18434 -0.40078,0.56273 -2.13015,2.62722 -3.84309,4.58774 -3.42248,3.91714 -4.23002,5.1405 -3.72527,5.64445 0.18003,0.17979 4.84262,1.37201 10.36134,2.64937 43.98624,10.18108 78.01977,21.61264 106.14943,35.65464 32.46096,16.20406 53.20487,33.64967 62.81383,52.82631 3.35042,6.68668 5.31193,14.17731 5.31193,20.28595 0,3.08855 -0.0845,3.51529 -0.96127,4.87369 -2.66964,4.13454 -10.87642,15.17303 -12.21147,16.42513 -0.83922,0.78706 -0.91104,0.80079 -0.92196,0.17604 -0.0505,-2.88917 -0.8073,-8.39725 -1.56366,-11.38098 -5.82091,-22.9631 -27.7763,-44.39859 -65.49403,-63.94294 -19.31074,-10.00636 -46.95208,-20.51076 -75.34321,-28.6323 -10.77115,-3.08119 -31.54616,-8.23479 -40.8088,-10.12333 l -2.78523,-0.56786 -1.18272,1.35773 c -1.46063,1.67666 -4.6139,5.8088 -5.86445,7.68497 -0.73736,1.10609 -0.84075,1.48507 -0.49454,1.81375 0.24058,0.22853 4.31909,1.32248 9.06324,2.431 18.18987,4.25022 37.03072,9.85061 55.24043,16.41993 52.11614,18.80154 86.21939,43.73877 95.40293,69.7613 1.82596,5.17421 2.50757,9.33365 2.50757,15.30259 0,8.69207 -1.46603,14.48248 -5.78735,22.85857 -2.94941,5.71693 -6.91174,11.0314 -12.51061,16.77992 -5.18248,5.32106 -13.78429,12.56538 -17.61329,14.83367 -0.61237,0.36277 -0.82667,0.65918 2.79873,-3.87113 8.36298,-10.45032 12.28986,-21.26017 11.89413,-32.74261 -0.3773,-10.95153 -4.35829,-20.91338 -12.98192,-32.4855 -3.40898,-4.5746 -13.79156,-14.85571 -19.67302,-19.4809 -17.56671,-13.81442 -40.90632,-26.28003 -69.3742,-37.05245 -12.50486,-4.73191 -36.64051,-12.23777 -48.87803,-15.20039 l -3.30736,-0.8007 -0.86492,0.93155 c -0.47565,0.51236 -1.11092,1.40685 -1.41173,1.98777 -0.30083,0.58092 -1.15625,1.88122 -1.90095,2.88955 -0.74472,1.00835 -1.35402,1.99297 -1.35402,2.18806 0,0.58035 0.97369,0.93397 6.33728,2.30163 11.97863,3.05439 30.73604,9.23214 43.83285,14.43646 37.32118,14.83033 63.80256,32.65304 77.46256,52.13455 2.99847,4.27636 6.36146,10.83805 7.72198,15.06698 2.67233,8.30617 2.5869,18.97076 -0.21758,27.16623 -3.00986,8.7953 -9.44889,17.76822 -18.03367,25.1302 -12.19692,10.45965 -28.66164,19.60578 -48.53253,26.95988 -7.87395,2.91413 -11.98391,3.62172 -26.69415,4.59583 -29.23997,1.93632 -60.28511,-1.81074 -87.89343,-10.60846 -11.63874,-3.70883 -12.48496,-4.081 -13.73331,-6.04024 -2.02161,-3.17283 -3.54298,-6.25 -4.12869,-8.35081 -0.32392,-1.16184 -0.75507,-2.6443 -0.95814,-3.2944 -0.20305,-0.65006 -0.64866,-3.10576 -0.99024,-5.4571 -0.93845,-6.45994 -0.7394,-16.37444 0.464,-23.11093 0.96688,-5.41246 2.77308,-12.91411 3.3844,-14.05641 0.20142,-0.37636 0.36623,-0.98801 0.36623,-1.3592 0,-1.11382 4.09455,-13.13708 6.66805,-19.58012 2.79074,-6.98685 6.81927,-15.90675 9.79496,-21.68772 6.80661,-13.22347 8.31015,-16.07328 8.73703,-16.56019 0.26084,-0.29754 0.80785,-1.24813 1.21557,-2.11243 0.98856,-2.0956 1.59333,-3.15181 3.72276,-6.50166 0.98816,-1.5545 2.08047,-3.37837 2.42737,-4.05311 0.3469,-0.67471 1.21926,-2.09813 1.9386,-3.16315 0.71934,-1.06501 1.41343,-2.27198 1.54242,-2.68211 0.129,-0.41017 0.54735,-1.02882 0.92969,-1.37484 0.38234,-0.34602 0.69515,-0.78434 0.69515,-0.97411 0,-0.18977 1.16207,-2.10598 2.58238,-4.2583 4.43552,-6.72153 10.90291,-16.40868 12.55668,-18.80794 0.87138,-1.26417 2.29726,-3.35721 3.16864,-4.65119 0.87138,-1.29398 2.25223,-3.20828 3.06858,-4.25403 1.23833,-1.5863 4.02794,-5.3235 7.66126,-10.26363 0.39185,-0.53284 1.5754,-2.19638 2.6302,-3.69675 1.05469,-1.50036 2.27708,-3.12402 2.71647,-3.60812 0.80154,-0.8832 1.16617,-1.37214 3.86644,-5.18522 0.8026,-1.13333 1.73524,-2.28954 2.07229,-2.56936 0.33717,-0.27981 0.99214,-1.10925 1.45546,-1.84319 0.46333,-0.73394 2.10527,-2.76705 3.64887,-4.518 1.54359,-1.75096 2.80647,-3.32464 2.80647,-3.49708 0,-0.17244 1.46544,-2.03871 3.25666,-4.14728 1.7911,-2.10856 4.93439,-5.87791 6.98497,-8.37631 2.0507,-2.49841 5.45699,-6.58112 7.56953,-9.07271 2.11266,-2.49157 4.25173,-5.06053 4.75343,-5.70878 0.5017,-0.64826 3.07546,-3.6003 5.71951,-6.5601 2.64417,-2.9598 5.16465,-6.09439 5.60122,-6.96577 0.43645,-0.87138 1.04765,-1.63106 1.35806,-1.68819 0.3104,-0.0571 1.41943,0.59013 2.46449,1.43834 5.45053,4.4239 9.57716,7.32548 10.27332,7.22362 0.43164,-0.0631 1.59641,-1.20973 2.79239,-2.74892 1.12863,-1.45229 3.46215,-4.4625 5.18566,-6.68935 5.31005,-6.86051 11.23283,-14.47717 13.5126,-17.37716 1.19611,-1.52143 2.80836,-3.61652 3.58291,-4.65577 0.77456,-1.03927 2.62962,-3.37191 4.1224,-5.18366 l 2.714,-3.2941 0.38728,-3.3164 c 0.42859,-3.67054 1.18437,-8.57144 1.80155,-11.68163 0.33623,-1.6944 0.75883,-2.44719 2.56977,-4.57692 1.19211,-1.40195 3.0494,-3.73722 4.12733,-5.18952 1.07804,-1.45229 3.36814,-4.41029 5.0893,-6.57332 1.72104,-2.16304 4.00058,-5.06846 5.0656,-6.4565 1.06501,-1.38805 2.64933,-3.43215 3.52071,-4.54248 0.87138,-1.11031 2.85178,-3.65888 4.40089,-5.66349 1.54911,-2.00459 4.72198,-6.03311 7.05093,-8.95225 5.00856,-6.27801 8.72314,-11.11139 8.9683,-11.66954 0.0962,-0.2204 0.61507,-0.93873 1.15175,-1.59629 0.53667,-0.65755 1.87278,-2.38379 2.96913,-3.83608 6.2509,-8.27989 12.59147,-16.40363 14.70131,-18.8358 2.55921,-2.95019 4.45992,-5.30978 5.9527,-7.39003 0.60627,-0.84481 3.55533,-4.67669 6.55334,-8.5153 2.99812,-3.83861 5.99952,-7.69224 6.66975,-8.56361 2.46649,-3.2062 3.78864,-4.90535 6.71505,-8.6299 1.64593,-2.09481 3.9432,-5.03378 5.10503,-6.53104 1.16184,-1.49725 3.06302,-3.8865 4.22486,-5.30943 1.16183,-1.42293 2.77209,-3.45923 3.57821,-4.52511 0.80624,-1.06588 3.31299,-4.31444 5.57059,-7.21903 2.25759,-2.90459 4.47834,-5.91479 4.9351,-6.68935 0.88006,-1.492664 1.32953,-4.508458 1.75777,-11.794381 0.11947,-2.033211 0.43762,-6.152442 0.70707,-9.153848 0.71025,-7.913127 0.80414,-12.405706 0.26312,-12.586248 -0.24176,-0.08062 -1.90529,0.323553 -3.69675,0.898297 -1.79145,0.574745 -4.68301,1.474321 -6.42576,1.999072 -1.74276,0.524738 -3.64394,1.114035 -4.22486,1.309552 -12.15948,4.092357 -15.63066,5.367828 -16.5809,6.092566 -0.62704,0.478336 -2.15292,2.178745 -3.39068,3.778685 -1.23777,1.599929 -4.78195,6.15682 -7.87595,10.126422 -3.094,3.969601 -6.95704,8.960213 -8.58443,11.090243 -1.62739,2.13003 -3.69581,4.74415 -4.59641,5.80917 -0.90071,1.06501 -2.56284,3.20385 -3.69381,4.75296 -1.13085,1.54911 -2.74733,3.60873 -3.59218,4.57692 -0.84485,0.9682 -6.6829,8.4145 -12.97347,16.54734 -6.29057,8.13285 -11.70953,15.09766 -12.04224,15.47737 -0.3327,0.3797 -1.7931,2.22891 -3.24539,4.10933 -11.97206,15.50144 -22.63653,29.0319 -27.55414,34.95907 -3.49254,4.20958 -9.33352,11.62738 -16.6816,21.18491 l -5.44079,7.07682 -7.46425,3.28096 c -4.10539,1.80453 -7.72139,3.45297 -8.03568,3.66321 -0.31428,0.21022 -1.92993,2.12415 -3.59042,4.25316 -1.66048,2.12902 -4.52951,5.77212 -6.37577,8.09579 -3.80941,4.79449 -10.08273,12.80137 -13.10268,16.72338 -1.11829,1.45229 -3.42577,4.40495 -5.12768,6.56145 -1.93029,2.44589 -3.09259,4.23394 -3.08942,4.75296 0,0.8731 0.23988,1.08655 6.76786,6.15493 3.89215,3.02194 3.83077,2.61669 0.90565,5.98099 -1.02817,1.18251 -2.81998,3.3146 -3.98181,4.738 -1.16184,1.42339 -2.82537,3.40443 -3.69675,4.40229 -0.87137,0.99787 -3.40629,3.92389 -5.63313,6.50226 -2.22685,2.57838 -5.39831,6.20476 -7.04776,8.05864 -1.64946,1.85387 -3.43915,3.92519 -3.97688,4.60293 -2.37472,2.99239 -23.8732,25.64916 -33.24028,35.03107 -11.23461,11.25239 -21.04286,20.78799 -23.50877,22.85526 -1.35547,1.13635 -3.81117,3.38084 -5.4571,4.98777 -1.64593,1.60691 -3.4679,3.28142 -4.04882,3.72111 -0.58092,0.43969 -2.49664,2.07295 -4.25716,3.62948 -4.64039,4.10271 -9.15805,7.8477 -14.45645,11.98391 -0.74415,0.58091 -2.46235,1.94589 -3.81822,3.0333 -1.35586,1.08741 -3.65346,2.85787 -5.10575,3.93436 -3.04145,2.25442 -4.80875,3.58908 -7.04142,5.31772 -0.87138,0.67467 -5.22826,3.66668 -9.68196,6.64893 -14.4457,9.67301 -21.0128,13.3818 -36.61539,20.67865 -2.30921,1.07998 -8.6509,3.34939 -13.90681,4.97666 -3.43898,1.06477 -8.56427,2.17894 -12.77907,2.77802 -3.1182,0.44322 -12.19581,0.45861 -14.7246,0.025 -4.359535,-0.74756 -4.746884,-0.94746 -6.060837,-3.1277 -1.496008,-2.48231 -6.769094,-12.11089 -8.332642,-15.21524 -3.038374,-6.0326 -8.12884,-17.94281 -10.384513,-24.29671 -0.721793,-2.03321 -1.520853,-3.93439 -1.77567,-4.22485 -0.830454,-0.94665 -6.146821,-18.27514 -6.146821,-20.03539 0,-0.90484 0.422649,-1.00559 5.985208,-1.42673 2.420489,-0.18326 6.460505,-0.49421 8.977813,-0.69099 23.043582,-1.80145 63.499072,-1.72359 90.130202,0.17344 11.13962,0.79352 28.82122,2.52776 33.76121,3.31136 2.19191,0.34769 2.7268,0.10034 5.88335,-2.7211 1.27877,-1.143 2.82348,-2.43311 3.4327,-2.86691 1.21394,-0.86439 1.45964,-2.00202 0.49153,-2.27589 -0.33886,-0.0959 -1.4875,-0.27546 -2.55251,-0.39909 -1.06502,-0.12364 -4.23366,-0.51714 -7.04142,-0.87443 -12.47658,-1.58768 -30.30364,-3.23622 -40.33402,-3.72985 -1.92436,-0.0947 -5.71688,-0.33115 -8.42783,-0.52544 -14.0484,-1.00675 -53.92974,-1.01163 -68.477826,-0.008 -2.807767,0.19364 -6.768566,0.44608 -8.801777,0.56101 -2.033211,0.1149 -5.99401,0.43838 -8.801777,0.71879 -2.807767,0.28043 -5.440742,0.51021 -5.851046,0.51064 -0.679169,7.1e-4 -0.828693,-0.43301 -1.6687,-4.8402 -1.278135,-6.7058 -1.986174,-11.42198 -1.986174,-13.2296 l 0,-1.5308 14.844726,-0.23334 c 27.670184,-0.43495 58.054884,-0.0979 73.288354,0.81298 22.39078,1.33883 34.12571,2.16857 42.48529,3.004 11.58507,1.15777 16.25173,1.64325 20.59616,2.14265 9.20724,1.05839 16.24333,1.94122 18.21535,2.28552 1.47397,0.25735 2.23539,0.24049 2.81657,-0.0623 1.12454,-0.586 9.42223,-8.81613 9.42223,-9.34551 0,-0.24054 -0.11942,-0.51115 -0.26538,-0.60136 -0.56345,-0.34824 -15.01724,-2.27779 -24.02752,-3.20763 -3.00141,-0.30974 -8.3881,-0.86734 -11.97042,-1.2391 -6.8326,-0.70908 -14.80583,-1.39263 -26.58137,-2.27883 -13.23525,-0.99606 -17.95947,-1.29345 -25.70119,-1.61789 -4.26006,-0.17853 -10.59734,-0.48781 -14.08284,-0.68728 -7.25054,-0.41495 -62.798392,-0.53046 -73.354199,-0.15253 l -7.018373,0.25127 -0.250029,-4.0105 c -0.137519,-2.20595 -0.273372,-6.14951 -0.301889,-8.76364 l -0.05187,-4.75295 5.985208,-0.21259 c 19.890491,-0.70647 27.503535,-0.84363 46.825452,-0.84363 11.81199,0 25.51635,0.12377 30.45415,0.27504 19.80943,0.60686 37.57276,1.40063 44.71303,1.99803 2.22685,0.18631 5.63314,0.42803 7.56953,0.53716 1.93639,0.10915 5.89719,0.42709 8.80177,0.70657 25.47527,2.45131 31.29253,3.08147 47.5296,5.14874 4.64734,0.59169 8.83957,1.08224 9.31605,1.09012 0.8717,0.0144 1.72996,-0.81526 7.99333,-7.72697 2.28759,-2.52438 2.66548,-3.59976 1.27341,-3.62388 -0.34493,-0.006 -1.73619,-0.15612 -3.09166,-0.33365 -27.38278,-3.58635 -48.04551,-5.74168 -65.83729,-6.86748 -29.46301,-1.86432 -36.28646,-2.21832 -52.63463,-2.73061 -21.96876,-0.68843 -84.116884,-0.26524 -87.548943,0.59615 -0.427766,0.10738 -0.861905,0.059 -0.964757,-0.10739 -0.301385,-0.48763 0.466353,-10.20041 1.423388,-18.00768 3.814069,-31.11426 13.892033,-61.56901 29.388888,-88.81071 10.879294,-19.12455 23.507454,-35.69937 39.164094,-51.40397 25.9574,-26.03696 56.42299,-45.155338 91.59586,-57.480103 18.12982,-6.352782 38.18849,-10.536854 58.96813,-12.300272 8.79473,-0.746332 30.84471,-0.74956 39.40485,-0.0059 12.65508,1.099588 24.00737,2.847422 34.53007,5.316308 24.41966,5.729476 45.03882,13.915458 67.01521,26.605555 l 4.87454,2.814812 1.03709,-0.99352 c 1.42189,-1.362322 3.23389,-4.255805 3.01771,-4.81906 -0.20138,-0.524703 -4.38891,-3.058982 -11.89319,-7.197671 -15.74591,-8.684056 -32.76972,-15.66437 -50.84869,-20.849673 -23.14773,-6.639099 -47.44404,-9.835787 -71.47043,-9.403408 -17.2543,0.310503 -29.167,1.604141 -46.15475,5.012095 -25.5248,5.120581 -52.07522,15.241334 -74.81976,28.520528 -10.35966,6.048397 -22.72926,14.597129 -31.86221,22.020249 -12.795,10.39957 -27.29808,24.95923 -37.31571,37.46125 -22.26263,27.78381 -37.751904,58.46761 -46.919788,92.94677 -6.090302,22.9048 -8.875818,48.49926 -7.846034,72.09274 0.651074,14.91665 1.591702,23.09386 4.484565,38.98568 1.444019,7.93261 5.807354,23.9163 9.111775,33.378 2.89913,8.3012 9.090253,23.10097 10.172754,24.31776 0.279885,0.31461 1.559875,2.71084 2.844418,5.32497 4.279729,8.7095 5.262794,10.60153 6.553709,12.61351 0.704882,1.0986 2.357187,3.81941 3.671785,6.04626 8.468086,14.34432 21.413786,30.70556 35.388376,44.725 8.49556,8.52283 10.96861,10.79252 19.18787,17.6101 25.37728,21.04952 55.83382,37.13008 88.05988,46.49422 16.79423,4.87999 29.29437,7.29097 46.25525,8.92152 8.19879,0.78822 8.35734,0.79262 25.34911,0.7045 12.8229,-0.0666 16.37506,-0.19878 21.82841,-0.81273 z"
       id="path3350"
       inkscape:connector-curvature="0"
       sodipodi:nodetypes="sssssssscsssssssssssssssssssssssscscsccsccsssscsssscssssssscsscsssssssssssssssssssssssssssssscscsssscsscssssssssssssscscsssssssssssssssssssscsscsssssssscscscsssssscsccccssssscssccsssssscsssscssscscsscsssccssccsscssscscsssscssssssssssssssssscsssssscssssssscssssscscsscssssscscsssssscsscssssssscscssscssssssssscsssssssssssssssssssssscc" />
  </g>
</svg>
