<?xml version="1.0" encoding="UTF-8" standalone="no"?>
<!-- Created with Inkscape (http://www.inkscape.org/) -->

<svg
   version="1.1"
   id="svg1"
   width="640.32001"
   height="640.32001"
   viewBox="0 0 640.32001 640.32001"
   xmlns="http://www.w3.org/2000/svg"
   xmlns:svg="http://www.w3.org/2000/svg">
  <defs
     id="defs1">
    <clipPath
       clipPathUnits="userSpaceOnUse"
       id="clipPath2">
      <path
         d="M 0,480.24 H 480.24 V 0 H 0 Z"
         transform="translate(-214.24761,-241.9927)"
         id="path2" />
    </clipPath>
    <clipPath
       clipPathUnits="userSpaceOnUse"
       id="clipPath2-9">
      <path
         d="M 0,480.24 H 480.24 V 0 H 0 Z"
         transform="translate(-214.24761,-241.9927)"
         id="path2-2" />
    </clipPath>
  </defs>
  <g
     id="layer-MC0">
    <path
       id="path1-9"
       clip-path="url(#clipPath2-9)"
       style="fill:#ffffff;fill-opacity:1;fill-rule:evenodd;stroke:none"
       d="m 22.943851,230.75268 c -4.578357,0.004 -9.146055,-0.15603 -13.6815369,-0.71353 -5.6789772,-0.163 -11.220553,-0.88237 -16.742531,-1.73437 -10.2279591,-1.58 -20.2927091,-3.94767 -30.2696691,-6.64364 -15.220938,-4.11299 -29.752396,-10.02471 -43.741342,-17.30167 -7.727968,-4.01899 -15.19236,-8.49427 -22.383332,-13.38023 -11.01494,-7.48299 -21.3842,-15.81068 -31.05216,-24.97964 -6.58798,-6.24798 -12.7114,-12.95095 -18.4724,-19.95492 -5.64996,-6.86399 -10.8732,-14.06045 -15.74718,-21.51241 -4.393,-6.71597 -8.39159,-13.65244 -12.10457,-20.7584 -2.914,-5.576982 -5.44584,-11.331799 -7.87284,-17.133775 -3.861,-9.231964 -6.97228,-18.72294 -9.52026,-28.3899 -2.192,-8.315968 -3.89753,-16.746006 -5.30653,-25.22997 -1.524,-9.171964 -2.50878,-18.410883 -2.62478,-27.7108455 -0.073,-5.93497637 -0.0961,-11.8718556 0.11692,-17.8098315 0.236,-6.582974 0.99733,-13.102666 1.79433,-19.626642 0.926,-7.556968 2.64675,-14.972344 4.19275,-22.413316 2.097,-10.097959 5.3017,-19.895678 8.8607,-29.548641 3.00298,-8.148967 6.57055,-16.079449 10.60855,-23.792409 3.76598,-7.19699 7.79246,-14.23625 12.29044,-20.99525 6.55698,-9.85796 13.65386,-19.29363 21.62784,-28.07361 5.78798,-6.37396 11.81657,-12.4761 18.23555,-18.21306 8.24996,-7.36798 17.00939,-14.06774 26.17735,-20.24574 9.229952,-6.21696 18.887582,-11.66723 28.932542,-16.46521 6.480974,-3.09298 13.069033,-5.94257 19.835005,-8.30756 13.283948,-4.64097 26.803874,-8.43049 40.726818,-10.71948 8.601966,-1.41298 17.238556,-2.48192 25.916521,-3.17492 4.061984,-0.321 8.167996,0.16323 12.24098,-0.35077 2.094992,-0.268 4.154915,0.32278 6.250905,0.33578 3.136988,0.023 6.267842,-0.0766 9.41683,0.21736 5.990976,0.553 11.986278,1.00869 17.928254,2.00269 2.878988,0.483 5.793336,0.77065 8.664324,1.29665 6.625974,1.212 13.156137,2.84653 19.670113,4.5735 11.460952,3.03999 22.617628,6.92935 33.450588,11.73731 9.64396,4.278 18.94378,9.2293 27.86374,14.85227 9.62096,6.06899 18.79402,12.73988 27.50398,20.07785 7.54796,6.36096 14.62008,13.19065 21.30704,20.43761 6.431,6.96896 12.32183,14.36259 17.87279,22.05655 9.82496,13.61196 18.06285,28.10255 24.68883,43.513491 4.63298,10.783956 8.35464,21.880762 11.23364,33.252714 2.328,9.195964 4.15391,18.496257 5.47891,27.901221 0.826,5.837976 1.66835,11.691019 1.75535,17.557996 0.089,5.6919779 0.48386,11.3788177 0.21286,17.1037948 -0.332,6.9419721 -0.53916,13.8714022 -1.28916,20.7973742 -0.98098,9.088964 -2.76846,18.025386 -4.63946,26.94035 -2.07698,9.88696 -5.09188,19.542029 -8.57888,29.011993 -3.45698,9.387961 -7.56745,18.506624 -12.30543,27.337586 -4.56498,8.49996 -9.57663,16.70643 -15.12659,24.59739 -3.641,5.17997 -7.41802,10.25561 -11.454,15.12359 -4.38,5.28098 -8.95297,10.40403 -13.81795,15.25101 -0.56,0.56 -0.42952,0.8326 0.0285,1.3776 1.346,1.59198 2.68901,3.18277 3.83599,4.94675 2.021,3.11098 4.64295,5.76983 6.94495,8.66883 2.149,2.70697 4.15789,5.28225 4.75189,8.78424 0.226,1.315 0.46813,2.61241 0.56213,3.95141 0.288,4.06199 0.80439,8.11455 0.95637,12.17952 0.136,3.70199 0.41959,7.39026 0.62959,11.08524 0.175,3.091 -0.33165,5.99887 -2.06265,8.59687 -2.101,3.14898 -5.4417,4.54204 -8.87568,4.50904 -2.872,-0.025 -5.83489,-1.178 -8.57289,-2.286 -5.67298,-2.296 -11.62713,-3.7112 -17.35113,-5.83717 -3.47496,-1.291 -7.10781,-2.27294 -9.50077,-5.44294 -3.618,-4.79696 -7.2194,-9.60959 -10.87538,-14.37858 -2.15,-2.80299 -2.19412,-2.76847 -5.16112,-0.80947 -0.349,0.231 -0.69531,0.46805 -1.05531,0.68205 -8.25996,4.88199 -16.73032,9.35236 -25.51628,13.23034 -8.87298,3.91698 -17.92468,7.36348 -27.253644,9.98346 -11.564952,3.24898 -23.259018,5.9814 -35.15197,7.80238 -6.867972,1.05199 -13.79896,1.73377 -20.708932,1.88577 -4.579982,0.1005 -9.169136,0.26982 -13.747493,0.27432 z m 5.330507,-9.96547 c 0.334291,-0.0117 0.6686,-0.0344 1.002843,-0.0465 a 227.49807,222.69544 0 0 1 -1.524501,0.036 c 0.17346,-0.004 0.348265,0.0165 0.521658,0.0105 z m -3.99788,-0.0764 a 227.49807,222.69544 0 0 1 -26.3482383,-1.84379 c 2.22838698,0.28875 4.4539983,0.58757 6.696113,0.79448 5.0499798,0.466 10.1025863,0.70737 15.1625663,0.96237 1.498679,0.0756 2.993443,0.0537 4.489559,0.0869 z m -36.273236,-3.32482 a 227.49807,222.69544 0 0 1 -17.52202,-3.73106 c 5.042629,1.29108 10.119377,2.46057 15.268996,3.36829 0.749448,0.13219 1.50301,0.23538 2.253024,0.36277 z"
       transform="matrix(1.3029364,0,0,-1.3029364,286.44932,317.72168)" />
    <path
       id="path1"
       d="m 0,0 c -4.044,0.551 -7.694,1.103 -11.359,1.537 -7.138,0.844 -14.29,1.574 -21.426,2.438 -8.799,1.064 -17.628,1.837 -26.46,2.521 -6.405,0.495 -12.832,0.762 -19.245,1.205 -5.429,0.374 -10.88,0.422 -16.313,0.755 -2.203,0.135 -4.405,0.077 -6.6,0.214 -7.203,0.453 -14.43,0.781 -21.628,0.849 -17.364,0.163 -34.741,0.52 -52.098,-0.624 -4.183,-0.276 -8.393,-0.125 -12.587,-0.285 -1.974,-0.075 -2.154,-0.098 -1.895,1.786 0.37,2.695 0.391,5.411 0.635,8.114 0.551,6.124 1.389,12.199 2.468,18.248 3.428,19.199 9.357,37.605 17.809,55.175 5.162,10.727 11.15,20.985 18.04,30.713 7.028,9.923 14.794,19.229 23.271,27.942 3.255,3.346 6.757,6.433 10.229,9.551 8.08,7.252 16.729,13.761 25.8,19.701 9.132,5.98 18.706,11.175 28.658,15.67 12.568,5.677 25.557,10.118 38.98,13.289 8.067,1.906 16.214,3.323 24.457,4.249 6.13,0.689 12.271,1.259 18.428,1.359 5.927,0.095 11.865,0.288 17.792,-0.181 3.856,-0.306 7.732,-0.354 11.574,-0.758 6.265,-0.655 12.505,-1.532 18.689,-2.758 11.963,-2.373 23.671,-5.603 35.094,-9.937 11.544,-4.379 22.644,-9.625 33.264,-15.9 4.114,-2.433 4.182,-2.425 6.695,1.677 0.415,0.678 0.3,0.986 -0.326,1.31 -0.371,0.192 -0.705,0.454 -1.064,0.67 -8.325,4.99 -16.922,9.449 -25.803,13.392 -11.22,4.986 -22.779,8.957 -34.658,11.976 -9.595,2.438 -19.33,4.188 -29.177,5.348 -7.637,0.898 -15.297,1.273 -22.969,1.541 -2.822,0.099 -5.653,-0.019 -8.487,-0.162 -5.06,-0.255 -10.113,-0.497 -15.163,-0.963 -6.339,-0.585 -12.615,-1.534 -18.874,-2.638 -14.302,-2.521 -28.193,-6.55 -41.664,-11.923 -12.33,-4.919 -24.147,-10.891 -35.431,-17.938 -12.833,-8.015 -24.739,-17.203 -35.733,-27.563 -5.037,-4.748 -9.789,-9.791 -14.378,-14.991 -6.45,-7.312 -12.356,-15.037 -17.77,-23.127 -7.419,-11.085 -13.764,-22.765 -19.102,-35.004 -4.525,-10.382 -8.162,-21.053 -11.089,-31.981 -2.536,-9.471 -4.257,-19.096 -5.554,-28.808 -1.005,-7.512 -1.419,-15.066 -1.733,-22.622 -0.161,-3.865 -0.028,-7.751 0.146,-11.636 0.301,-6.678 0.626,-13.346 1.506,-19.977 1.063,-8 2.237,-15.983 4.197,-23.819 3.96,-15.833 8.682,-31.395 16.616,-45.791 2.954,-5.361 5.173,-11.082 8.464,-16.3 4.605,-7.296 9.129,-14.62 14.448,-21.45 7.706,-9.896 15.889,-19.327 25.072,-27.897 5.019,-4.683 10.254,-9.105 15.57,-13.424 6.14,-4.989 12.785,-9.282 19.454,-13.538 10.413,-6.646 21.419,-12.143 32.776,-16.909 11.234,-4.714 22.878,-8.301 34.723,-11.127 8.36,-1.998 16.85,-3.399 25.404,-4.324 5.714,-0.62 11.442,-1.157 17.189,-1.189 6.186,-0.038 12.372,-0.152 18.564,0.172 5.586,0.29 11.161,0.724 16.681,1.499 10.524,1.479 20.966,3.402 31.209,6.337 12.31,3.528 24.283,7.903 35.829,13.444 13.265,6.367 25.885,13.816 37.615,22.716 10.237,7.765 19.92,16.153 28.683,25.591 5.56,5.991 10.854,12.186 15.825,18.664 7.483,9.751 14.024,20.101 19.726,30.966 5.728,10.913 10.527,22.235 14.341,33.967 4.579,14.077 7.799,28.429 9.487,43.147 0.81,7.063 1.351,14.138 1.56,21.23 0.205,6.965 -0.075,13.929 -0.626,20.887 -0.489,6.182 -1.268,12.315 -2.133,18.455 -1.687,11.926 -4.703,23.518 -8.4,34.94 -4.433,13.701 -10.326,26.783 -17.388,39.325 -5.712,10.138 -12.2,19.764 -19.422,28.899 -4.158,5.258 -8.601,10.261 -13.115,15.204 -2.902,3.177 -3.282,3.089 -5.561,-0.653 -0.609,-1.003 -0.52,-1.585 0.31,-2.394 3.603,-3.511 6.842,-7.356 10.08,-11.202 10.027,-11.9 18.552,-24.808 25.787,-38.556 4.91,-9.326 9.02,-19.018 12.485,-28.982 4.83,-13.893 8.093,-28.138 10.067,-42.71 1.139,-8.4 1.485,-16.84 1.815,-25.284 0.115,-2.924 -0.067,-5.864 -0.16,-8.794 -0.195,-6.221 -0.614,-12.41 -1.235,-18.598 -0.958,-9.508 -2.856,-18.841 -5.059,-28.117 -1.951,-8.197 -4.616,-16.185 -7.556,-24.076 -1.054,-2.841 -2.3,-5.615 -3.449,-8.422 -0.345,-0.851 -0.749,-1.132 -1.41,-0.256 -3.782,4.986 -8.219,9.343 -12.85,13.521 -5.144,4.638 -10.698,8.748 -16.459,12.557 -10.869,7.183 -22.379,13.204 -34.238,18.599 -10.877,4.949 -21.994,9.277 -33.261,13.226 -13.775,4.827 -27.79,8.879 -41.908,12.554 -7.118,1.851 -14.299,3.453 -21.466,5.104 -4.668,1.075 -9.37,2.019 -14.046,3.065 -0.744,0.167 -1.199,-0.04 -1.635,-0.575 -2.184,-2.659 -4.348,-5.339 -6.591,-7.948 -0.783,-0.912 -0.595,-1.055 0.484,-1.3 9.412,-2.126 18.831,-4.222 28.157,-6.706 13.399,-3.563 26.676,-7.512 39.735,-12.192 11.54,-4.133 22.871,-8.75 33.903,-14.094 7.034,-3.406 13.874,-7.16 20.496,-11.313 10.252,-6.429 19.845,-13.669 27.884,-22.804 7.283,-8.274 12.772,-17.467 14.324,-28.598 0.467,-3.369 1.285,-6.042 -1.44,-9.821 -1.247,-1.73 -3.28,-4.545 -4.942,-6.845 -2.21,-3.049 -3.606,-4.792 -5.72,-7.302 -0.202,-0.24 -0.342,-0.606 -0.695,-0.529 -0.51,0.109 -0.302,0.582 -0.342,0.919 -0.089,0.722 -0.22,1.446 -0.245,2.17 -0.26,8.288 -3.168,15.725 -7.392,22.709 -5.019,8.297 -11.731,15.121 -19.117,21.279 -10.51,8.765 -22.202,15.725 -34.388,21.882 -13.346,6.741 -27.19,12.285 -41.307,17.169 -10.582,3.658 -21.276,6.948 -32.098,9.819 -10.134,2.693 -20.294,5.271 -30.574,7.349 -0.53,0.106 -0.992,0.376 -1.538,-0.236 -2.167,-2.429 -3.987,-5.11 -5.917,-7.715 -0.676,-0.911 -0.385,-1.011 0.556,-1.213 3.621,-0.782 7.228,-1.63 10.82,-2.535 14.654,-3.692 29.163,-7.864 43.402,-12.96 10.312,-3.693 20.464,-7.763 30.334,-12.507 9.453,-4.545 18.6,-9.641 27.202,-15.689 8.659,-6.088 16.637,-12.882 22.998,-21.421 7.297,-9.802 11.264,-20.586 9.805,-32.995 -0.92,-7.831 -4.04,-14.775 -8.433,-21.215 -3.712,-5.44 -8.22,-10.173 -13.124,-14.54 -3.399,-3.032 -7.024,-5.78 -10.71,-8.45 -0.368,-0.268 -0.853,-0.735 -1.236,-0.265 -0.421,0.514 0.272,0.787 0.547,1.108 4.033,4.702 7.629,9.674 10.048,15.446 3.805,9.078 4.361,18.249 1.42,27.681 -2.837,9.109 -8.012,16.78 -14.372,23.694 -6.259,6.809 -13.384,12.638 -21.026,17.852 -9.067,6.185 -18.591,11.549 -28.481,16.299 -7.608,3.653 -15.362,6.935 -23.227,9.977 -8.4,3.249 -16.92,6.141 -25.54,8.748 -7.398,2.24 -14.842,4.309 -22.327,6.235 -0.803,0.206 -1.195,0.02 -1.669,-0.639 -1.19,-1.655 -1.975,-3.137 -3.317,-4.894 -0.483,-0.727 -0.48,-1.137 0.368,-1.494 10.374,-2.509 20.543,-5.728 30.623,-9.194 10.444,-3.591 20.696,-7.709 30.646,-12.533 9.919,-4.811 19.558,-10.112 28.541,-16.54 8.12,-5.811 15.671,-12.255 21.758,-20.245 7.005,-9.195 11.405,-19.245 10.468,-31.173 -0.494,-6.299 -2.342,-12.069 -5.562,-17.438 -5.702,-9.516 -13.854,-16.591 -22.958,-22.633 -8.757,-5.809 -18.16,-10.418 -27.898,-14.346 -4.124,-1.663 -8.219,-3.607 -12.574,-4.411 -7.491,-1.389 -15.114,-1.951 -22.73,-2.147 -5.711,-0.146 -11.435,-0.108 -17.161,0.127 -8.67,0.359 -17.254,1.277 -25.82,2.631 -12.777,2.014 -24.525,5.048 -36.739,9.251 -4.809,1.949 -6.341,3.756 -8.996,9.251 -0.97,2.675 -1.737,5.411 -2.119,8.298 -0.326,2.462 -0.67,9.582 1.87,24.114 1.884,10.775 4.635,20.036 5.697,23.662 1.62,5.532 5.425,15.927 7.449,20.596 2.766,6.383 5.036,11.228 9.386,18.302 4.863,7.911 6.812,11.117 13.332,20.312 7.367,10.391 9.881,13.956 14.626,20.214 18.248,24.067 22.672,29.201 34.387,44.1 2.174,2.764 22.431,28.028 25.382,31.962 0.828,1.101 1.086,0.994 3.621,-1.175 2.017,-1.743 3.779,-3.175 6.356,-5.204 0.811,-0.641 1.572,0.332 2.498,1.283 2.027,2.487 9.132,11.521 12.906,16.257 4.474,5.619 8.248,10.459 12.694,16.109 2.351,3.164 2.366,2.478 2.473,3.42 0.683,6.052 0.845,6.591 1.69,11.681 1.317,1.929 1.869,2.712 6.258,9.053 3.662,5.292 24.429,32.524 29.262,38.694 3.619,4.624 52.506,67.36 56.251,72.253 6.007,7.846 6.007,7.846 6.628,12.478 0.244,3.639 0.484,4.991 0.757,8.629 0.397,5.289 0.747,10.582 1.124,15.993 -2.644,-0.732 -5.142,-1.607 -7.667,-2.369 -5.088,-1.534 -10.111,-3.278 -15.148,-4.979 -2.75,-0.928 -3.652,-0.902 -6.433,-4.117 -2.775,-3.211 -2.82,-3.24 -3.918,-4.595 -6.051,-7.476 -57.629,-73.858 -63.312,-81.046 -4.188,-5.302 -8.406,-10.582 -12.73,-15.784 C 83.527,95.186 80.451,90.798 75.048,83.781 73.557,81.683 73.373,81.406 71.709,79.252 66.848,77.767 66.017,77.621 60.684,75.978 60.035,75.778 59.837,75.643 58.918,74.518 50.457,64.127 47.584,60.567 42.707,54.211 38.798,49.378 35.426,44.83 31.55,39.974 c -0.814,-1.018 -0.821,-1.595 0.253,-2.516 3.487,-2.992 3.615,-2.985 6.585,-5.576 1.605,-1.491 1.605,-1.491 0.398,-3.056 C 35.884,25.594 33.187,22.191 30.394,18.871 26.39,14.11 7.504,-7.009 2.115,-12.851 -11.43,-27.629 -20.666,-37.863 -42.391,-58.073 -48.5,-63.32 -54.608,-68.571 -60.96,-73.52 c -2.845,-2.217 -8.499,-6.484 -11.339,-8.709 -4.027,-3.153 -7.582,-5.541 -11.832,-8.38 -3.609,-2.412 -9.82,-6.217 -13.475,-8.546 -6.77,-4.317 -10.462,-5.707 -17.779,-8.918 -5.91,-2.594 -9.612,-3.493 -19.22,-5.357 -4.876,-0.668 -8.03,-0.971 -14.929,-1.176 -3.375,-0.101 -8.575,1.054 -10.675,4.621 -2.6,4.415 -4.1,6.735 -6.267,11.359 -6.333,13.512 -7.16,15.761 -11.869,27.548 -2.193,5.247 -3.484,10.834 -4.99,16.33 -0.426,1.549 0.148,1.957 1.48,2.071 4.676,0.393 9.345,0.915 14.03,1.18 7.261,0.414 14.528,0.836 21.797,0.921 6.127,0.071 12.257,0.326 18.388,0.069 4.978,-0.21 9.958,0.037 14.947,-0.219 5.486,-0.279 10.981,-0.458 16.47,-0.713 5.638,-0.262 11.252,-0.692 16.871,-1.201 6.746,-0.61 13.494,-1.152 20.202,-2.133 0.927,-0.137 2.27,-0.526 3.126,0.16 2.35,1.891 4.581,3.952 7.04,6.051 -0.862,0.126 -1.072,0.108 -1.41,0.149 -8.12,0.964 -16.231,2.036 -24.368,2.834 -7.272,0.715 -14.57,1.179 -21.863,1.651 -6.207,0.402 -12.429,0.521 -18.641,0.92 -5.125,0.33 -10.278,0.068 -15.423,0.247 -5.079,0.178 -10.174,-0.092 -15.261,-0.203 -1.985,-0.044 -3.966,-0.068 -5.955,-0.197 -6.209,-0.398 -12.437,-0.478 -18.644,-0.989 -4.578,-0.379 -9.167,-0.633 -13.741,-1.063 -0.939,-0.089 -1.199,0.103 -1.341,0.949 -0.345,2.054 -0.812,4.087 -1.139,6.144 -0.53,3.338 -0.986,6.685 -1.479,10.028 -0.139,0.948 0.197,1.282 1.201,1.259 2.09,-0.051 4.182,0.11 6.27,0.188 6.032,0.226 12.073,0.272 18.11,0.259 12.754,-0.028 25.511,0.239 38.26,-0.452 5.125,-0.279 10.262,-0.321 15.393,-0.507 3.135,-0.115 6.27,-0.258 9.4,-0.467 5.468,-0.363 10.932,-0.786 16.399,-1.185 3.334,-0.239 6.676,-0.4 10.001,-0.734 6.581,-0.657 13.156,-1.38 19.727,-2.128 6.059,-0.691 12.112,-1.433 18.16,-2.2 1.035,-0.131 1.858,-0.116 2.731,0.644 2.028,1.763 3.807,3.768 5.748,5.613 0.616,0.587 1.036,0.997 1.939,1.919 -0.869,0.127 -1.065,0.168 -1.407,0.223 -7.867,1.274 -15.777,2.217 -23.697,3.055 -6.225,0.659 -12.469,1.153 -18.706,1.678 -7.796,0.657 -15.589,1.331 -23.392,1.882 -5.789,0.409 -11.587,0.714 -17.387,0.925 -8.507,0.31 -17.018,0.629 -25.529,0.697 -8.652,0.066 -17.305,0.253 -25.959,0.056 -4.888,-0.111 -9.78,-0.02 -14.671,-0.023 -0.471,0 -0.946,-0.003 -1.415,-0.046 -3.757,-0.354 -7.522,-0.457 -11.294,-0.435 -0.604,0.004 -1.014,0.157 -1.031,0.867 -0.112,4.871 -0.561,9.729 -0.495,14.608 0.011,0.8 0.272,1.095 1.099,1.125 3.447,0.128 6.89,0.419 10.337,0.473 6.067,0.093 12.134,0.354 18.197,0.409 15.238,0.137 30.478,0.161 45.716,-0.191 0.72,-0.016 1.444,-0.056 2.161,-0.08 7.476,-0.252 14.95,-0.573 22.424,-0.888 2.928,-0.124 5.857,-0.235 8.781,-0.439 6.405,-0.446 12.806,-0.935 19.207,-1.433 4.683,-0.366 9.368,-0.715 14.041,-1.185 4.815,-0.485 9.613,-1.131 14.422,-1.667 7.606,-0.853 15.227,-1.569 22.788,-2.793 0.709,-0.115 1.832,-0.489 2.36,0.193 C -5.656,-5.963 -2.917,-3.089 0,0 m 9.263,230.04 c 9.071,1.115 18.269,0.64 27.429,0.439 6.91,-0.152 13.841,-0.834 20.709,-1.886 11.893,-1.821 23.586,-4.553 35.151,-7.802 9.329,-2.62 18.381,-6.067 27.254,-9.984 8.786,-3.878 17.256,-8.348 25.516,-13.23 0.36,-0.214 0.707,-0.452 1.056,-0.683 2.967,-1.959 3.01,-1.993 5.16,0.81 3.656,4.769 7.257,9.583 10.875,14.38 2.393,3.17 6.027,4.15 9.502,5.441 5.724,2.126 11.678,3.542 17.351,5.838 2.738,1.108 5.701,2.262 8.573,2.287 3.434,0.033 6.775,-1.36 8.876,-4.509 1.731,-2.598 2.238,-5.506 2.063,-8.597 -0.21,-3.695 -0.494,-7.385 -0.63,-11.087 -0.152,-4.065 -0.669,-8.117 -0.957,-12.179 -0.094,-1.339 -0.337,-2.636 -0.563,-3.951 -0.594,-3.502 -2.603,-6.078 -4.752,-8.785 -2.302,-2.899 -4.924,-5.556 -6.945,-8.667 -1.147,-1.764 -2.489,-3.355 -3.835,-4.947 -0.458,-0.545 -0.588,-0.819 -0.028,-1.379 4.865,-4.847 9.437,-9.97 13.817,-15.251 4.036,-4.868 7.814,-9.944 11.455,-15.124 5.55,-7.891 10.561,-16.096 15.126,-24.596 4.738,-8.831 8.848,-17.95 12.305,-27.338 3.487,-9.47 6.503,-19.125 8.58,-29.012 1.871,-8.915 3.658,-17.852 4.639,-26.941 0.75,-6.926 0.957,-13.855 1.289,-20.797 0.271,-5.725 -0.124,-11.411 -0.213,-17.103 -0.087,-5.867 -0.929,-11.721 -1.755,-17.559 -1.325,-9.405 -3.151,-18.705 -5.479,-27.901 -2.879,-11.372 -6.601,-22.47 -11.234,-33.254 -6.626,-15.411 -14.864,-29.901 -24.689,-43.513 -5.551,-7.694 -11.441,-15.087 -17.872,-22.056 -6.687,-7.247 -13.758,-14.076 -21.306,-20.437 -8.71,-7.338 -17.885,-14.01 -27.506,-20.079 -8.92,-5.623 -18.218,-10.574 -27.862,-14.852 -10.833,-4.808 -21.991,-8.696 -33.452,-11.736 -6.514,-1.727 -13.044,-3.363 -19.67,-4.575 -2.871,-0.526 -5.785,-0.813 -8.664,-1.296 -5.942,-0.994 -11.938,-1.449 -17.929,-2.002 -3.149,-0.294 -6.279,-0.194 -9.416,-0.217 -2.096,-0.013 -4.156,-0.606 -6.251,-0.338 -4.073,0.514 -8.179,0.031 -12.241,0.352 -8.678,0.693 -17.314,1.761 -25.916,3.174 -13.923,2.289 -27.443,6.079 -40.727,10.72 -6.766,2.365 -13.354,5.215 -19.835,8.308 -10.045,4.798 -19.703,10.248 -28.933,16.465 -9.168,6.178 -17.928,12.878 -26.178,20.246 -6.419,5.737 -12.447,11.839 -18.235,18.213 -7.974,8.78 -15.07,18.215 -21.627,28.073 -4.498,6.759 -8.525,13.799 -12.291,20.996 -4.038,7.713 -7.605,15.643 -10.608,23.792 -3.559,9.653 -6.764,19.451 -8.861,29.549 -1.546,7.441 -3.268,14.857 -4.194,22.414 -0.797,6.524 -1.558,13.043 -1.794,19.626 -0.213,5.938 -0.189,11.875 -0.116,17.81 0.116,9.3 1.1,18.539 2.624,27.711 1.409,8.484 3.115,16.914 5.307,25.23 2.548,9.667 5.659,19.157 9.52,28.389 2.427,5.802 4.96,11.558 7.874,17.135 3.713,7.106 7.71,14.041 12.103,20.757 4.874,7.452 10.098,14.649 15.748,21.513 5.761,7.004 11.885,13.707 18.473,19.955 9.668,9.169 20.037,17.497 31.052,24.98 7.191,4.886 14.654,9.36 22.382,13.379 13.989,7.277 28.521,13.19 43.742,17.303 9.977,2.696 20.042,5.063 30.27,6.643 5.522,0.852 11.064,1.572 16.743,1.735"
       style="fill:#bd1e2d;fill-opacity:1;fill-rule:evenodd;stroke:none"
       transform="matrix(1.3333333,0,0,-1.3333333,285.66459,317.66427)"
       clip-path="url(#clipPath2)" />
  </g>
</svg>
